<?xml version="1.0" encoding="UTF-8" standalone="no"?>
<svg
   xmlns:dc="http://purl.org/dc/elements/1.1/"
   xmlns:cc="http://creativecommons.org/ns#"
   xmlns:rdf="http://www.w3.org/1999/02/22-rdf-syntax-ns#"
   xmlns:svg="http://www.w3.org/2000/svg"
   xmlns="http://www.w3.org/2000/svg"
   viewBox="0 0 1605 1023.75"
   height="1023.75"
   width="1605"
   xml:space="preserve"
   version="1.1"
   id="svg3355"><metadata
     id="metadata3361"><rdf:RDF><cc:Work
         rdf:about=""><dc:format>image/svg+xml</dc:format><dc:type
           rdf:resource="http://purl.org/dc/dcmitype/StillImage" /><dc:title></dc:title></cc:Work></rdf:RDF></metadata><defs
     id="defs3359" /><g
     transform="matrix(1.25,0,0,-1.25,0,1023.75)"
     id="g3363"><g
       id="g4023"><g
         id="g3365" /><g
         transform="translate(40,40)"
         id="g3483"><path
           id="path3485"
           style="fill:none;stroke:#00ff00;stroke-width:1;stroke-linecap:butt;stroke-linejoin:round;stroke-miterlimit:1;stroke-dasharray:none;stroke-opacity:1"
           d="m 700.9812,693.5 c 0,9.9411 -8.0588,18 -18,18 -9.9411,0 -18,-8.0589 -18,-18 0,-9.9411 8.0589,-18 18,-18 9.9412,0 18,8.0589 18,18 z" /></g><g
         transform="translate(40,40)"
         id="g3487"><path
           id="path3489"
           style="fill:none;stroke:#000000;stroke-width:1;stroke-linecap:butt;stroke-linejoin:round;stroke-miterlimit:1;stroke-dasharray:none;stroke-opacity:1"
           d="m 1140.771,702.5 0,36 54,0 0,-36 -54,0 z" /></g><g
         transform="translate(40,40)"
         id="g3491"><text
           id="text3493"
           style="font-variant:normal;font-weight:normal;font-size:14px;font-family:Times;-inkscape-font-specification:Times-Roman;writing-mode:lr-tb;fill:#000000;fill-opacity:1;fill-rule:nonzero;stroke:none"
           transform="matrix(1,0,0,-1,1153.388,716.3)"><tspan
             id="tspan3495"
             y="0"
             x="0 7.7867999 14.0056 17.9004 24.1192">Peter</tspan></text>
</g><g
         transform="translate(40,40)"
         id="g3497"><path
           id="path3499"
           style="fill:none;stroke:#000000;stroke-width:1;stroke-linecap:butt;stroke-linejoin:round;stroke-miterlimit:1;stroke-dasharray:none;stroke-opacity:1"
           d="m 701.164,694.4609 c 69.7009,3.8981 332.241,18.5806 429.272,24.007" /></g><g
         transform="translate(40,40)"
         id="g3501"><path
           id="path3503"
           style="fill:#000000;fill-opacity:1;fill-rule:nonzero;stroke:#000000;stroke-width:1;stroke-linecap:butt;stroke-linejoin:round;stroke-miterlimit:1;stroke-dasharray:none;stroke-opacity:1"
           d="m 1130.451,721.9742 10.18,-2.9361 -9.789,-4.053 -0.391,6.9891 z" /></g><g
         transform="translate(40,40)"
         id="g3505"><text
           id="text3507"
           style="font-variant:normal;font-weight:normal;font-size:14px;font-family:Times;-inkscape-font-specification:Times-Roman;writing-mode:lr-tb;fill:#000000;fill-opacity:1;fill-rule:nonzero;stroke:none"
           transform="matrix(1,0,0,-1,947.3948,719.3)"><tspan
             id="tspan3509"
             y="0"
             x="0 7 14 21 28 31.8892 36.551201 43.551201 48.2132 54.426399 61.426399 67.639603 78.528801">gndo:forename</tspan></text>
</g><g
         transform="translate(40,40)"
         id="g3511"><path
           id="path3513"
           style="fill:none;stroke:#000000;stroke-width:1;stroke-linecap:butt;stroke-linejoin:round;stroke-miterlimit:1;stroke-dasharray:none;stroke-opacity:1"
           d="m 1140.771,647.5 0,36 54,0 0,-36 -54,0 z" /></g><g
         transform="translate(40,40)"
         id="g3515"><text
           id="text3517"
           style="font-variant:normal;font-weight:normal;font-size:14px;font-family:Times;-inkscape-font-specification:Times-Roman;writing-mode:lr-tb;fill:#000000;fill-opacity:1;fill-rule:nonzero;stroke:none"
           transform="matrix(1,0,0,-1,1153.385,661.3)"><tspan
             id="tspan3519"
             y="0"
             x="0 10.1108 16.323999 23.323999">Ochs</tspan></text>
</g><g
         transform="translate(40,40)"
         id="g3521"><path
           id="path3523"
           style="fill:none;stroke:#000000;stroke-width:1;stroke-linecap:butt;stroke-linejoin:round;stroke-miterlimit:1;stroke-dasharray:none;stroke-opacity:1"
           d="m 701.164,692.5035 c 69.7009,-4.0424 332.241,-19.2688 429.272,-24.8962" /></g><g
         transform="translate(40,40)"
         id="g3525"><path
           id="path3527"
           style="fill:#000000;fill-opacity:1;fill-rule:nonzero;stroke:#000000;stroke-width:1;stroke-linecap:butt;stroke-linejoin:round;stroke-miterlimit:1;stroke-dasharray:none;stroke-opacity:1"
           d="m 1130.851,671.0892 9.78,-4.0732 -10.186,-2.915 0.406,6.9882 z" /></g><g
         transform="translate(40,40)"
         id="g3529"><text
           id="text3531"
           style="font-variant:normal;font-weight:normal;font-size:14px;font-family:Times;-inkscape-font-specification:Times-Roman;writing-mode:lr-tb;fill:#000000;fill-opacity:1;fill-rule:nonzero;stroke:none"
           transform="matrix(1,0,0,-1,950.1087,685.3)"><tspan
             id="tspan3533"
             y="0"
             x="0 7 14 21 28 31.8892 37.338001 44.338001 49 56 62.2132 73.102402">gndo:surname</tspan></text>
</g><g
         transform="translate(40,40)"
         id="g3535"><path
           id="path3537"
           style="fill:none;stroke:#0000ff;stroke-width:1;stroke-linecap:butt;stroke-linejoin:round;stroke-miterlimit:1;stroke-dasharray:none;stroke-opacity:1"
           d="m 243.1579,508.5 c 0,9.9411 -54.4445,18 -121.6053,18 -67.16071,0 -121.6052531,-8.0589 -121.6052531,-18 0,-9.9411 54.4445431,-18 121.6052531,-18 67.1608,0 121.6053,8.0589 121.6053,18 z" /></g><g
         transform="translate(40,40)"
         id="g3539"><text
           id="text3541"
           style="font-variant:normal;font-weight:normal;font-size:14px;font-family:Times;-inkscape-font-specification:Times-Roman;writing-mode:lr-tb;fill:#000000;fill-opacity:1;fill-rule:nonzero;stroke:none"
           transform="matrix(1,0,0,-1,33.33827,504.3)"><tspan
             id="tspan3543"
             y="0"
             x="0 7 10.8892 14.7784 21.7784 25.667601 29.556801 33.445999 40.445999 45.108002 52.108002 59.108002 62.608002 66.4972 73.4972 78.159203 85.159203 89.048401 96.048401 103.0484 110.0484 113.9376 120.4252 127.4252 134.4252 141.4252 148.4252 155.4252 162.4252 169.4252">http://d-nb.info/gnd/118735896</tspan></text>
</g><g
         transform="translate(40,40)"
         id="g3545"><path
           id="path3547"
           style="fill:none;stroke:#000000;stroke-width:1;stroke-linecap:butt;stroke-linejoin:round;stroke-miterlimit:1;stroke-dasharray:none;stroke-opacity:1"
           d="m 136.4142,526.7647 c 22.6488,28.3517 70.5297,82.3277 124.6911,107.7353 136.9577,64.2481 324.5049,63.4285 393.756,60.5554" /></g><g
         transform="translate(40,40)"
         id="g3549"><path
           id="path3551"
           style="fill:#000000;fill-opacity:1;fill-rule:nonzero;stroke:#000000;stroke-width:1;stroke-linecap:butt;stroke-linejoin:round;stroke-miterlimit:1;stroke-dasharray:none;stroke-opacity:1"
           d="m 655.1078,698.5478 9.8263,-3.9615 -10.152,-3.031 0.3257,6.9925 z" /></g><g
         transform="translate(40,40)"
         id="g3553"><text
           id="text3555"
           style="font-variant:normal;font-weight:normal;font-size:14px;font-family:Times;-inkscape-font-specification:Times-Roman;writing-mode:lr-tb;fill:#000000;fill-opacity:1;fill-rule:nonzero;stroke:none"
           transform="matrix(1,0,0,-1,265.3846,693.3)"><tspan
             id="tspan3557"
             y="0"
             x="0 7 14 21 28 31.8892 38.889198 43.551201 49.7644 54.426399 60.639599 65.301598 69.9636 76.176804 83.176804 93.287598 99.500801 110.39 116.6032 125.1544 132.1544 136.04359 139.9328 143.82201 150.82201 158.6088 165.6088 170.2708 178.82201 185.82201 192.0352 199.82201 206.0352 210.6972 216.146 223.146">gndo:preferredNameEntityForThePerson</tspan></text>
</g><g
         transform="translate(40,40)"
         id="g3559"><path
           id="path3561"
           style="fill:none;stroke:#000000;stroke-width:1;stroke-linecap:butt;stroke-linejoin:round;stroke-miterlimit:1;stroke-dasharray:none;stroke-opacity:1"
           d="m 559.1941,612.5 0,44 247.5742,0 0,-44 -247.5742,0 z" /></g><g
         transform="translate(40,40)"
         id="g3563"><text
           id="text3565"
           style="font-variant:normal;font-weight:normal;font-size:14px;font-family:Times;-inkscape-font-specification:Times-Roman;writing-mode:lr-tb;fill:#000000;fill-opacity:1;fill-rule:nonzero;stroke:none"
           transform="matrix(1,0,0,-1,567.1941,641.3)"><tspan
             id="tspan3567"
             y="0"
             x="0 7.7867999 14 21 31.1108 37.324001 41.2132 47.426399 53.639599 58.301601 61.801601 69.588402 76.588402 80.4776 84.366798 88.255997 92.145203 99.145203 105.3584 109.4674 112.9674 116.4674 121.9162 128.9162 133.5782 137.46741 142.9162 146.8054 150.3054 157.3054 164.3054 171.3054 174.8054 184.9162 188.8054 194.2542 198.1434 205.1434 209.8054 213.6946 220.6946 226.90781">Schweizer Politiker, Jurist und Historiker</tspan></text>
</g><g
         transform="translate(40,40)"
         id="g3569"><path
           id="path3571"
           style="fill:none;stroke:#000000;stroke-width:1;stroke-linecap:butt;stroke-linejoin:round;stroke-miterlimit:1;stroke-dasharray:none;stroke-opacity:1"
           d="m 559.1941,634.5 247.5742,0" /></g><g
         transform="translate(40,40)"
         id="g3573"><text
           id="text3575"
           style="font-variant:normal;font-weight:normal;font-size:14px;font-family:Times;-inkscape-font-specification:Times-Roman;writing-mode:lr-tb;fill:#000000;fill-opacity:1;fill-rule:nonzero;stroke:none"
           transform="matrix(1,0,0,-1,645.0828,619.3)"><tspan
             id="tspan3577"
             y="0"
             x="0 8.5511999 14.7644 21.7644 28.7644 35.7644 41.9776 48.9776 55.1908 59.080002 62.580002 69.580002">Language: de</tspan></text>
</g><g
         transform="translate(40,40)"
         id="g3579"><path
           id="path3581"
           style="fill:none;stroke:#000000;stroke-width:1;stroke-linecap:butt;stroke-linejoin:round;stroke-miterlimit:1;stroke-dasharray:none;stroke-opacity:1"
           d="m 154.6379,525.8539 c 27.4921,14.1302 68.542,33.5006 106.4674,44.6461 94.2036,27.6847 203.9775,43.8711 287.7922,53.0377" /></g><g
         transform="translate(40,40)"
         id="g3583"><path
           id="path3585"
           style="fill:#000000;fill-opacity:1;fill-rule:nonzero;stroke:#000000;stroke-width:1;stroke-linecap:butt;stroke-linejoin:round;stroke-miterlimit:1;stroke-dasharray:none;stroke-opacity:1"
           d="m 548.6707,627.0334 10.3166,-2.4124 -9.5692,-4.5476 -0.7474,6.96 z" /></g><g
         transform="translate(40,40)"
         id="g3587"><text
           id="text3589"
           style="font-variant:normal;font-weight:normal;font-size:14px;font-family:Times;-inkscape-font-specification:Times-Roman;writing-mode:lr-tb;fill:#000000;fill-opacity:1;fill-rule:nonzero;stroke:none"
           transform="matrix(1,0,0,-1,261.1053,619.3)"><tspan
             id="tspan3591"
             y="0"
             x="0 7 14 21 28 31.8892 38.889198 42.7784 49.7784 56.7784 61.440399 67.653603 74.653603 81.653603 85.542801 91.755997 97.9692 101.8584 111.9692 116.6312 126.742 130.6312 136.08 139.96919 146.96919 151.6312 155.5204 161.7336 167.94679 171.836 176.498 183.498 188.16 195.16 199.82201 210.7112 216.92439 220.8136 224.7028 231.7028">gndo:biographicalOrHistoricalInformation</tspan></text>
</g><g
         transform="translate(40,40)"
         id="g3593"><path
           id="path3595"
           style="fill:none;stroke:#000000;stroke-width:1;stroke-linecap:butt;stroke-linejoin:round;stroke-miterlimit:1;stroke-dasharray:none;stroke-opacity:1"
           d="m 517.8162,549.5 0,44 330.3301,0 0,-44 -330.3301,0 z" /></g><g
         transform="translate(40,40)"
         id="g3597"><text
           id="text3599"
           style="font-variant:normal;font-weight:normal;font-size:14px;font-family:Times;-inkscape-font-specification:Times-Roman;writing-mode:lr-tb;fill:#000000;fill-opacity:1;fill-rule:nonzero;stroke:none"
           transform="matrix(1,0,0,-1,668.9812,578.3)"><tspan
             id="tspan3601"
             y="0"
             x="0 7 14 21">1752</tspan></text>
</g><g
         transform="translate(40,40)"
         id="g3603"><path
           id="path3605"
           style="fill:none;stroke:#000000;stroke-width:1;stroke-linecap:butt;stroke-linejoin:round;stroke-miterlimit:1;stroke-dasharray:none;stroke-opacity:1"
           d="m 517.8162,571.5 330.3301,0" /></g><g
         transform="translate(40,40)"
         id="g3607"><text
           id="text3609"
           style="font-variant:normal;font-weight:normal;font-size:14px;font-family:Times;-inkscape-font-specification:Times-Roman;writing-mode:lr-tb;fill:#000000;fill-opacity:1;fill-rule:nonzero;stroke:none"
           transform="matrix(1,0,0,-1,525.8162,556.3)"><tspan
             id="tspan3611"
             y="0"
             x="0 10.1108 16.323999 20.2132 26.426399 30.315599 37.315601 44.315601 50.528801 54.417999 57.917999 64.917999 68.807198 72.696404 79.696404 83.585602 87.4748 91.363998 101.4748 111.5856 120.7864 124.2864 134.3972 141.3972 144.8972 151.8972 156.31281 163.31281 167.202 174.202 181.202 188.202 195.202 199.0912 209.202 221.6508 230.202 237.9888 244.202 251.202 257.41519 268.30441 274.51761 281.51761 288.51761 297.23401 303.4472 309.6604">Datatype: http://www.w3.org/2001/XMLSchema#gYear</tspan></text>
</g><g
         transform="translate(40,40)"
         id="g3613"><path
           id="path3615"
           style="fill:none;stroke:#000000;stroke-width:1;stroke-linecap:butt;stroke-linejoin:round;stroke-miterlimit:1;stroke-dasharray:none;stroke-opacity:1"
           d="m 212.6972,520.5121 c 16.1122,2.0612 32.7508,4.134 48.4081,5.9879 80.9268,9.5819 170.7187,19.3066 246.509,27.2523" /></g><g
         transform="translate(40,40)"
         id="g3617"><path
           id="path3619"
           style="fill:#000000;fill-opacity:1;fill-rule:nonzero;stroke:#000000;stroke-width:1;stroke-linecap:butt;stroke-linejoin:round;stroke-miterlimit:1;stroke-dasharray:none;stroke-opacity:1"
           d="m 507.4261,557.2516 10.31,-2.44 -9.5814,-4.522 -0.7286,6.962 z" /></g><g
         transform="translate(40,40)"
         id="g3621"><text
           id="text3623"
           style="font-variant:normal;font-weight:normal;font-size:14px;font-family:Times;-inkscape-font-specification:Times-Roman;writing-mode:lr-tb;fill:#000000;fill-opacity:1;fill-rule:nonzero;stroke:none"
           transform="matrix(1,0,0,-1,331.0813,555.3)"><tspan
             id="tspan3625"
             y="0"
             x="0 7 14 21 28 31.8892 38.889198 45.102402 48.9916 55.2048 65.315598 69.9776 79.315598 83.204803 87.866798 91.755997">gndo:dateOfBirth</tspan></text>
</g><g
         transform="translate(40,40)"
         id="g3627"><path
           id="path3629"
           style="fill:none;stroke:#000000;stroke-width:1;stroke-linecap:butt;stroke-linejoin:round;stroke-miterlimit:1;stroke-dasharray:none;stroke-opacity:1"
           d="m 517.8162,486.5 0,44 330.3301,0 0,-44 -330.3301,0 z" /></g><g
         transform="translate(40,40)"
         id="g3631"><text
           id="text3633"
           style="font-variant:normal;font-weight:normal;font-size:14px;font-family:Times;-inkscape-font-specification:Times-Roman;writing-mode:lr-tb;fill:#000000;fill-opacity:1;fill-rule:nonzero;stroke:none"
           transform="matrix(1,0,0,-1,668.9812,515.3)"><tspan
             id="tspan3635"
             y="0"
             x="0 7 14 21">1821</tspan></text>
</g><g
         transform="translate(40,40)"
         id="g3637"><path
           id="path3639"
           style="fill:none;stroke:#000000;stroke-width:1;stroke-linecap:butt;stroke-linejoin:round;stroke-miterlimit:1;stroke-dasharray:none;stroke-opacity:1"
           d="m 517.8162,508.5 330.3301,0" /></g><g
         transform="translate(40,40)"
         id="g3641"><text
           id="text3643"
           style="font-variant:normal;font-weight:normal;font-size:14px;font-family:Times;-inkscape-font-specification:Times-Roman;writing-mode:lr-tb;fill:#000000;fill-opacity:1;fill-rule:nonzero;stroke:none"
           transform="matrix(1,0,0,-1,525.8162,493.3)"><tspan
             id="tspan3645"
             y="0"
             x="0 10.1108 16.323999 20.2132 26.426399 30.315599 37.315601 44.315601 50.528801 54.417999 57.917999 64.917999 68.807198 72.696404 79.696404 83.585602 87.4748 91.363998 101.4748 111.5856 120.7864 124.2864 134.3972 141.3972 144.8972 151.8972 156.31281 163.31281 167.202 174.202 181.202 188.202 195.202 199.0912 209.202 221.6508 230.202 237.9888 244.202 251.202 257.41519 268.30441 274.51761 281.51761 288.51761 297.23401 303.4472 309.6604">Datatype: http://www.w3.org/2001/XMLSchema#gYear</tspan></text>
</g><g
         transform="translate(40,40)"
         id="g3647"><path
           id="path3649"
           style="fill:none;stroke:#000000;stroke-width:1;stroke-linecap:butt;stroke-linejoin:round;stroke-miterlimit:1;stroke-dasharray:none;stroke-opacity:1"
           d="m 243.2516,508.5 c 77.1655,0 178.5085,0 264.3511,0" /></g><g
         transform="translate(40,40)"
         id="g3651"><path
           id="path3653"
           style="fill:#000000;fill-opacity:1;fill-rule:nonzero;stroke:#000000;stroke-width:1;stroke-linecap:butt;stroke-linejoin:round;stroke-miterlimit:1;stroke-dasharray:none;stroke-opacity:1"
           d="m 507.7239,512.0001 10,-3.5001 -10.0001,-3.4999 1e-4,7 z" /></g><g
         transform="translate(40,40)"
         id="g3655"><text
           id="text3657"
           style="font-variant:normal;font-weight:normal;font-size:14px;font-family:Times;-inkscape-font-specification:Times-Roman;writing-mode:lr-tb;fill:#000000;fill-opacity:1;fill-rule:nonzero;stroke:none"
           transform="matrix(1,0,0,-1,328.7571,511.3)"><tspan
             id="tspan3659"
             y="0"
             x="0 7 14 21 28 31.8892 38.889198 45.102402 48.9916 55.2048 65.315598 69.9776 80.088402 86.301598 92.514801 96.403999">gndo:dateOfDeath</tspan></text>
</g><g
         transform="translate(40,40)"
         id="g3661"><path
           id="path3663"
           style="fill:none;stroke:#0000ff;stroke-width:1;stroke-linecap:butt;stroke-linejoin:round;stroke-miterlimit:1;stroke-dasharray:none;stroke-opacity:1"
           d="m 803.2807,449.5 c 0,9.9411 -53.8599,18 -120.2995,18 -66.4395,0 -120.2994,-8.0589 -120.2994,-18 0,-9.9411 53.8599,-18 120.2994,-18 66.4396,0 120.2995,8.0589 120.2995,18 z" /></g><g
         transform="translate(40,40)"
         id="g3665"><text
           id="text3667"
           style="font-variant:normal;font-weight:normal;font-size:14px;font-family:Times;-inkscape-font-specification:Times-Roman;writing-mode:lr-tb;fill:#000000;fill-opacity:1;fill-rule:nonzero;stroke:none"
           transform="matrix(1,0,0,-1,595.6795,445.3)"><tspan
             id="tspan3669"
             y="0"
             x="0 7 10.8892 14.7784 21.7784 25.667601 29.556801 33.445999 40.445999 45.108002 52.108002 59.108002 62.608002 66.4972 73.4972 78.159203 85.159203 89.048401 96.048401 103.0484 110.0484 113.9376 120.9376 127.9376 134.93761 141.93761 148.93761 155.93761 162.93761 167.59959">http://d-nb.info/gnd/4025098-2</tspan></text>
</g><g
         transform="translate(40,40)"
         id="g3671"><path
           id="path3673"
           style="fill:none;stroke:#000000;stroke-width:1;stroke-linecap:butt;stroke-linejoin:round;stroke-miterlimit:1;stroke-dasharray:none;stroke-opacity:1"
           d="m 211.9396,496.4594 c 16.3447,-2.0799 33.2588,-4.1518 49.1657,-5.9594 104.0922,-11.8286 222.9112,-23.2096 307.696,-30.9666" /></g><g
         transform="translate(40,40)"
         id="g3675"><path
           id="path3677"
           style="fill:#000000;fill-opacity:1;fill-rule:nonzero;stroke:#000000;stroke-width:1;stroke-linecap:butt;stroke-linejoin:round;stroke-miterlimit:1;stroke-dasharray:none;stroke-opacity:1"
           d="m 569.3284,462.9999 9.6406,-4.3943 -10.2768,-2.5767 0.6362,6.971 z" /></g><g
         transform="translate(40,40)"
         id="g3679"><text
           id="text3681"
           style="font-variant:normal;font-weight:normal;font-size:14px;font-family:Times;-inkscape-font-specification:Times-Roman;writing-mode:lr-tb;fill:#000000;fill-opacity:1;fill-rule:nonzero;stroke:none"
           transform="matrix(1,0,0,-1,295.7019,493.3)"><tspan
             id="tspan3683"
             y="0"
             x="0 7 14 21 28 31.8892 38.889198 43.551201 50.551201 55.2132 61.426399 66.875198 72.323997 76.213203 83.213203 90.213203 100.324 104.986 115.0968 121.31 127.5232 134.52319 141.52319 147.7364 151.6256 155.5148 162.5148">gndo:professionOrOccupation</tspan></text>
</g><g
         transform="translate(40,40)"
         id="g3685"><path
           id="path3687"
           style="fill:none;stroke:#0000ff;stroke-width:1;stroke-linecap:butt;stroke-linejoin:round;stroke-miterlimit:1;stroke-dasharray:none;stroke-opacity:1"
           d="m 803.2807,395.5 c 0,9.9411 -53.8599,18 -120.2995,18 -66.4395,0 -120.2994,-8.0589 -120.2994,-18 0,-9.9411 53.8599,-18 120.2994,-18 66.4396,0 120.2995,8.0589 120.2995,18 z" /></g><g
         transform="translate(40,40)"
         id="g3689"><text
           id="text3691"
           style="font-variant:normal;font-weight:normal;font-size:14px;font-family:Times;-inkscape-font-specification:Times-Roman;writing-mode:lr-tb;fill:#000000;fill-opacity:1;fill-rule:nonzero;stroke:none"
           transform="matrix(1,0,0,-1,595.6795,391.3)"><tspan
             id="tspan3693"
             y="0"
             x="0 7 10.8892 14.7784 21.7784 25.667601 29.556801 33.445999 40.445999 45.108002 52.108002 59.108002 62.608002 66.4972 73.4972 78.159203 85.159203 89.048401 96.048401 103.0484 110.0484 113.9376 120.9376 127.9376 134.93761 141.93761 148.93761 155.93761 162.93761 167.59959">http://d-nb.info/gnd/4029050-5</tspan></text>
</g><g
         transform="translate(40,40)"
         id="g3695"><path
           id="path3697"
           style="fill:none;stroke:#000000;stroke-width:1;stroke-linecap:butt;stroke-linejoin:round;stroke-miterlimit:1;stroke-dasharray:none;stroke-opacity:1"
           d="m 156.0654,491.1337 c 27.4977,-13.4831 67.824,-31.5303 105.0399,-41.6337 98.2061,-26.661 212.971,-40.2724 297.8315,-47.1546" /></g><g
         transform="translate(40,40)"
         id="g3699"><path
           id="path3701"
           style="fill:#000000;fill-opacity:1;fill-rule:nonzero;stroke:#000000;stroke-width:1;stroke-linecap:butt;stroke-linejoin:round;stroke-miterlimit:1;stroke-dasharray:none;stroke-opacity:1"
           d="m 559.4413,405.8165 9.6929,-4.2775 -10.2448,-2.7007 0.5519,6.9782 z" /></g><g
         transform="translate(40,40)"
         id="g3703"><text
           id="text3705"
           style="font-variant:normal;font-weight:normal;font-size:14px;font-family:Times;-inkscape-font-specification:Times-Roman;writing-mode:lr-tb;fill:#000000;fill-opacity:1;fill-rule:nonzero;stroke:none"
           transform="matrix(1,0,0,-1,295.7019,452.3)"><tspan
             id="tspan3707"
             y="0"
             x="0 7 14 21 28 31.8892 38.889198 43.551201 50.551201 55.2132 61.426399 66.875198 72.323997 76.213203 83.213203 90.213203 100.324 104.986 115.0968 121.31 127.5232 134.52319 141.52319 147.7364 151.6256 155.5148 162.5148">gndo:professionOrOccupation</tspan></text>
</g><g
         transform="translate(40,40)"
         id="g3709"><path
           id="path3711"
           style="fill:none;stroke:#0000ff;stroke-width:1;stroke-linecap:butt;stroke-linejoin:round;stroke-miterlimit:1;stroke-dasharray:none;stroke-opacity:1"
           d="m 803.2807,341.5 c 0,9.9411 -53.8599,18 -120.2995,18 -66.4395,0 -120.2994,-8.0589 -120.2994,-18 0,-9.9411 53.8599,-18 120.2994,-18 66.4396,0 120.2995,8.0589 120.2995,18 z" /></g><g
         transform="translate(40,40)"
         id="g3713"><text
           id="text3715"
           style="font-variant:normal;font-weight:normal;font-size:14px;font-family:Times;-inkscape-font-specification:Times-Roman;writing-mode:lr-tb;fill:#000000;fill-opacity:1;fill-rule:nonzero;stroke:none"
           transform="matrix(1,0,0,-1,595.6795,337.3)"><tspan
             id="tspan3717"
             y="0"
             x="0 7 10.8892 14.7784 21.7784 25.667601 29.556801 33.445999 40.445999 45.108002 52.108002 59.108002 62.608002 66.4972 73.4972 78.159203 85.159203 89.048401 96.048401 103.0484 110.0484 113.9376 120.9376 127.9376 134.93761 141.93761 148.93761 155.93761 162.93761 167.59959">http://d-nb.info/gnd/4046517-2</tspan></text>
</g><g
         transform="translate(40,40)"
         id="g3719"><path
           id="path3721"
           style="fill:none;stroke:#000000;stroke-width:1;stroke-linecap:butt;stroke-linejoin:round;stroke-miterlimit:1;stroke-dasharray:none;stroke-opacity:1"
           d="M 137.3748,490.3757 C 160.596,463.4133 208.3826,413.4576 261.1053,390.5 354.3657,349.8907 469.6691,338.8549 555.9944,337.2928" /></g><g
         transform="translate(40,40)"
         id="g3723"><path
           id="path3725"
           style="fill:#000000;fill-opacity:1;fill-rule:nonzero;stroke:#000000;stroke-width:1;stroke-linecap:butt;stroke-linejoin:round;stroke-miterlimit:1;stroke-dasharray:none;stroke-opacity:1"
           d="m 556.1591,340.791 9.9498,-3.6404 -10.0483,-3.3589 0.0985,6.9993 z" /></g><g
         transform="translate(40,40)"
         id="g3727"><text
           id="text3729"
           style="font-variant:normal;font-weight:normal;font-size:14px;font-family:Times;-inkscape-font-specification:Times-Roman;writing-mode:lr-tb;fill:#000000;fill-opacity:1;fill-rule:nonzero;stroke:none"
           transform="matrix(1,0,0,-1,295.7019,393.3)"><tspan
             id="tspan3731"
             y="0"
             x="0 7 14 21 28 31.8892 38.889198 43.551201 50.551201 55.2132 61.426399 66.875198 72.323997 76.213203 83.213203 90.213203 100.324 104.986 115.0968 121.31 127.5232 134.52319 141.52319 147.7364 151.6256 155.5148 162.5148">gndo:professionOrOccupation</tspan></text>
</g><g
         transform="translate(40,40)"
         id="g3733"><path
           id="path3735"
           style="fill:none;stroke:#000000;stroke-width:1;stroke-linecap:butt;stroke-linejoin:round;stroke-miterlimit:1;stroke-dasharray:none;stroke-opacity:1"
           d="m 1131.388,432.5 0,36 72.766,0 0,-36 -72.766,0 z" /></g><g
         transform="translate(40,40)"
         id="g3737"><text
           id="text3739"
           style="font-variant:normal;font-weight:normal;font-size:14px;font-family:Times;-inkscape-font-specification:Times-Roman;writing-mode:lr-tb;fill:#000000;fill-opacity:1;fill-rule:nonzero;stroke:none"
           transform="matrix(1,0,0,-1,1139.388,446.3)"><tspan
             id="tspan3741"
             y="0"
             x="0 10.1108 14 19.448799 23.337999 30.337999 35 38.889198 45.889198 52.102402">Historiker</tspan></text>
</g><g
         transform="translate(40,40)"
         id="g3743"><path
           id="path3745"
           style="fill:none;stroke:#000000;stroke-width:1;stroke-linecap:butt;stroke-linejoin:round;stroke-miterlimit:1;stroke-dasharray:none;stroke-opacity:1"
           d="m 803.6326,449.7478 c 102.7382,0.2128 245.3304,0.5082 317.4534,0.6576" /></g><g
         transform="translate(40,40)"
         id="g3747"><path
           id="path3749"
           style="fill:#000000;fill-opacity:1;fill-rule:nonzero;stroke:#000000;stroke-width:1;stroke-linecap:butt;stroke-linejoin:round;stroke-miterlimit:1;stroke-dasharray:none;stroke-opacity:1"
           d="m 1121.195,453.9055 10.007,-3.4792 -9.992,-3.5208 -0.015,7 z" /></g><g
         transform="translate(40,40)"
         id="g3751"><text
           id="text3753"
           style="font-variant:normal;font-weight:normal;font-size:14px;font-family:Times;-inkscape-font-specification:Times-Roman;writing-mode:lr-tb;fill:#000000;fill-opacity:1;fill-rule:nonzero;stroke:none"
           transform="matrix(1,0,0,-1,866.1463,453.3)"><tspan
             id="tspan3755"
             y="0"
             x="0 7 14 21 28 31.8892 38.889198 43.551201 49.7644 54.426399 60.639599 65.301598 69.9636 76.176804 83.176804 93.287598 99.500801 110.39 116.6032 124.39 131.39 136.052 144.6032 151.6032 157.81641 165.6032 172.6032 179.6032 183.4924 189.7056 195.91879 199.808 209.91879 216.132 222.3452 229.3452 233.23441 240.23441">gndo:preferredNameForTheSubjectHeading</tspan></text>
</g><g
         transform="translate(40,40)"
         id="g3757"><path
           id="path3759"
           style="fill:none;stroke:#000000;stroke-width:1;stroke-linecap:butt;stroke-linejoin:round;stroke-miterlimit:1;stroke-dasharray:none;stroke-opacity:1"
           d="m 1140.771,377.5 0,36 54,0 0,-36 -54,0 z" /></g><g
         transform="translate(40,40)"
         id="g3761"><text
           id="text3763"
           style="font-variant:normal;font-weight:normal;font-size:14px;font-family:Times;-inkscape-font-specification:Times-Roman;writing-mode:lr-tb;fill:#000000;fill-opacity:1;fill-rule:nonzero;stroke:none"
           transform="matrix(1,0,0,-1,1152.602,391.3)"><tspan
             id="tspan3765"
             y="0"
             x="0 5.4488001 12.4488 17.1108 21 26.448799">Jurist</tspan></text>
</g><g
         transform="translate(40,40)"
         id="g3767"><path
           id="path3769"
           style="fill:none;stroke:#000000;stroke-width:1;stroke-linecap:butt;stroke-linejoin:round;stroke-miterlimit:1;stroke-dasharray:none;stroke-opacity:1"
           d="m 803.6326,395.5 c 107.3535,0 258.2224,0 326.7364,0" /></g><g
         transform="translate(40,40)"
         id="g3771"><path
           id="path3773"
           style="fill:#000000;fill-opacity:1;fill-rule:nonzero;stroke:#000000;stroke-width:1;stroke-linecap:butt;stroke-linejoin:round;stroke-miterlimit:1;stroke-dasharray:none;stroke-opacity:1"
           d="m 1130.639,399.0001 10,-3.5001 -10,-3.4999 0,7 z" /></g><g
         transform="translate(40,40)"
         id="g3775"><text
           id="text3777"
           style="font-variant:normal;font-weight:normal;font-size:14px;font-family:Times;-inkscape-font-specification:Times-Roman;writing-mode:lr-tb;fill:#000000;fill-opacity:1;fill-rule:nonzero;stroke:none"
           transform="matrix(1,0,0,-1,866.1463,398.3)"><tspan
             id="tspan3779"
             y="0"
             x="0 7 14 21 28 31.8892 38.889198 43.551201 49.7644 54.426399 60.639599 65.301598 69.9636 76.176804 83.176804 93.287598 99.500801 110.39 116.6032 124.39 131.39 136.052 144.6032 151.6032 157.81641 165.6032 172.6032 179.6032 183.4924 189.7056 195.91879 199.808 209.91879 216.132 222.3452 229.3452 233.23441 240.23441">gndo:preferredNameForTheSubjectHeading</tspan></text>
</g><g
         transform="translate(40,40)"
         id="g3781"><path
           id="path3783"
           style="fill:none;stroke:#000000;stroke-width:1;stroke-linecap:butt;stroke-linejoin:round;stroke-miterlimit:1;stroke-dasharray:none;stroke-opacity:1"
           d="m 1135.661,322.5 0,36 64.221,0 0,-36 -64.221,0 z" /></g><g
         transform="translate(40,40)"
         id="g3785"><text
           id="text3787"
           style="font-variant:normal;font-weight:normal;font-size:14px;font-family:Times;-inkscape-font-specification:Times-Roman;writing-mode:lr-tb;fill:#000000;fill-opacity:1;fill-rule:nonzero;stroke:none"
           transform="matrix(1,0,0,-1,1143.661,336.3)"><tspan
             id="tspan3789"
             y="0"
             x="0 7.7867999 14.7868 18.676001 22.565201 26.454399 30.343599 37.343601 43.556801">Politiker</tspan></text>
</g><g
         transform="translate(40,40)"
         id="g3791"><path
           id="path3793"
           style="fill:none;stroke:#000000;stroke-width:1;stroke-linecap:butt;stroke-linejoin:round;stroke-miterlimit:1;stroke-dasharray:none;stroke-opacity:1"
           d="m 803.6326,341.2522 c 104.7854,-0.2171 251.0284,-0.52 321.6794,-0.6663" /></g><g
         transform="translate(40,40)"
         id="g3795"><path
           id="path3797"
           style="fill:#000000;fill-opacity:1;fill-rule:nonzero;stroke:#000000;stroke-width:1;stroke-linecap:butt;stroke-linejoin:round;stroke-miterlimit:1;stroke-dasharray:none;stroke-opacity:1"
           d="m 1125.587,344.0854 9.993,-3.5208 -10.008,-3.4792 0.015,7 z" /></g><g
         transform="translate(40,40)"
         id="g3799"><text
           id="text3801"
           style="font-variant:normal;font-weight:normal;font-size:14px;font-family:Times;-inkscape-font-specification:Times-Roman;writing-mode:lr-tb;fill:#000000;fill-opacity:1;fill-rule:nonzero;stroke:none"
           transform="matrix(1,0,0,-1,866.1463,344.3)"><tspan
             id="tspan3803"
             y="0"
             x="0 7 14 21 28 31.8892 38.889198 43.551201 49.7644 54.426399 60.639599 65.301598 69.9636 76.176804 83.176804 93.287598 99.500801 110.39 116.6032 124.39 131.39 136.052 144.6032 151.6032 157.81641 165.6032 172.6032 179.6032 183.4924 189.7056 195.91879 199.808 209.91879 216.132 222.3452 229.3452 233.23441 240.23441">gndo:preferredNameForTheSubjectHeading</tspan></text>
</g></g></g></svg>