<?xml version="1.0"?>
<svg xmlns="http://www.w3.org/2000/svg" viewBox="0 0 1900 2274">
<title>Wappen Stadt Basel</title>
<path d="m1893 6.869v1369c0 492-423 890-943.5 890-521 0-942.6-398-942.6-890l-0.031-1369z" stroke="#000" stroke-width="13.74px" fill="#fff"/>
<path d="m702.2 540.7c22.2 35.4 37 234.5-199.7 227.2-142.7-4.1-245.2-173-204-354.4 41.2-182.5 227.2-288.8 390-285.7 283.2 7.3 427.5 221 469.5 340.9 37 110.5 59 257.5 58 350.3h-424c29.6-168.9 11.6-237.7 11.6-237.7s-41.2-172-164.8-172-149 107.4-149 107.4-13.7 83.4 48.6 96.9c15.9 3.2 48.6 1.1 48.6-39.6 0-19.8-16.9-38.6-46.5-34.4 13.8-65.7 104.6-90.7 161.7 1.1zm-28.5 389.9c-31.7 0-57.1 25-57.1 56.3 0 31.1 25.4 57.1 57.1 57.1h1 660.3c32 0 58-26 58-57.1 0-31.3-26-56.3-58-56.3h-661.3zm61.3-90.7c-18 0-31.8 15.6-31.8 34.4 0 19.8 13.8 34.4 31.8 34.4h538c17 0 32-14.6 32-34.4 0-18.8-15-34.4-32-34.4zm-29.6 225.1c-19 0-34.9 16-34.9 34 0 19 15.9 35 34.9 35h596.6c19 0 35-16 35-35 0-18-16-34-35-34h-596.6zm23.2 88-143.7 899 245.2-183 173.9 186 175-186 245 183-145-899z"/>
</svg>