<?xml version="1.0" encoding="UTF-8" standalone="no"?>
<!-- Created with Inkscape (http://www.inkscape.org/) -->

<svg
   xmlns:dc="http://purl.org/dc/elements/1.1/"
   xmlns:cc="http://creativecommons.org/ns#"
   xmlns:rdf="http://www.w3.org/1999/02/22-rdf-syntax-ns#"
   xmlns:svg="http://www.w3.org/2000/svg"
   xmlns="http://www.w3.org/2000/svg"
   xmlns:xlink="http://www.w3.org/1999/xlink"
   version="1.1"
   width="406.539"
   height="492.82401"
   viewBox="-175.626 -214.155 406.539 492.824"
   id="Ebene_1"
   xml:space="preserve"><metadata
   id="metadata405"><rdf:RDF><cc:Work
       rdf:about=""><dc:format>image/svg+xml</dc:format><dc:type
         rdf:resource="http://purl.org/dc/dcmitype/StillImage" /><dc:title></dc:title></cc:Work></rdf:RDF></metadata><defs
   id="defs403"><defs
     id="defs163">
									<rect
   width="406.539"
   height="492.82401"
   x="-175.62601"
   y="-214.155"
   id="SVGID_7_" />
								</defs><clipPath
     id="SVGID_8_">
									<use
   id="use167"
   style="overflow:visible"
   x="0"
   y="0"
   width="406.539"
   height="492.82401"
   xlink:href="#SVGID_7_" />
								</clipPath></defs>
<g
   id="g5">
		<path
   d="M 27.502,-212.635 H 229.404 V 84.091 c 0,106.609 -90.328,193.047 -201.773,193.047 l -0.129,-489.773 z"
   id="path7"
   style="fill:#e8423f" />
	</g><path
   d="m 174.788,-132.315 0,27.168 18.867,0 0,16.199 -18.867,0 0,27.168 -16.493,0 0,-27.168 -18.851,0 0,-16.199 18.851,0 0,-27.168 z m 23.078,91.973 0,-19.328 19.742,0 0,-9.157 0,-65.851 -19.742,0 0,-19.071 19.742,0 0,-26.257 -29.609,-0.055 0,17.922 -24.836,0.293 0,-18.285 -29.883,0 0,45.453 -20.344,0 -0.102,75.008 20.446,0 0,45.843 29.883,0 0,-18.433 24.836,-0.305 0,18.457 29.609,0.031 0,-26.265 z"
   id="polygon37"
   style="fill:#ffd134;fill-opacity:1;stroke:#010202;stroke-width:3.26399994" /><path
   d="m 121.163,-183.717 c 0,-2.945 -1.477,-5.559 -3.656,-7.199 -0.461,-4.543 -4.266,-8.105 -8.922,-8.105 -4.625,0 -8.391,3.496 -8.875,7.992 -2.297,1.625 -3.75,4.305 -3.75,7.313 0,0.242 -0.016,0.488 0,0.711 V 88.607 h 25.203 v -271.828 -0.496 z M 96.499,74.4075 c -0.047,13.125 0.6015,54.2345 -37.5625,68.8125 l -0.03125,24.96875 c 38.141,14.609 37.7655,47.35925 37.8125,60.53125 l 23.65625,0 c 0.031,-13.172 -1.68725,-45.9535 36.46875,-60.5625 l 0,-24.84375 C 118.68575,128.73575 120.405,87.5325 120.374,74.4075 l -23.875,0 z m 11.46875,59.40625 c 5.898,0 10.656,4.703 10.75,10.5 5.82,0.149 10.5,4.84325 10.5,10.65625 0,5.812 -4.679,10.56225 -10.5,10.65625 -0.125,5.797 -4.883,10.4375 -10.75,10.4375 -5.852,0 -10.60975,-4.6405 -10.71875,-10.4375 -5.82,-0.141 -10.46875,-4.85925 -10.46875,-10.65625 0,-5.797 4.64875,-10.50025 10.46875,-10.65625 0.047,-5.813 4.85175,-10.5 10.71875,-10.5 z"
   id="path95"
   style="fill:#ffd134;fill-opacity:1;stroke:#010202;stroke-width:3.0480001;stroke-miterlimit:10" /><g
   id="g9">
		<path
   d="m 27.631,277.138 0,0 c -111.41,0 -201.73,-86.438 -201.73,-193.047 V -212.636 H 27.502 l 0.129,489.774 z"
   id="path11"
   style="fill:#ffd134" />
	</g><line
   stroke-miterlimit="10"
   x1="213.55299"
   y1="103.435"
   x2="213.55299"
   y2="103.435"
   id="line41"
   style="fill:#ffd134;fill-opacity:1;stroke:#010202;stroke-width:2.77600002;stroke-linecap:square;stroke-miterlimit:10" /><path
   d="m 284.03125,301.5 c -0.1073,13.77069 -6.88799,55.23566 -49.25,67.40625 -0.55232,-4.61762 -4.86532,-8.23275 -10.09375,-8.21875 -5.609,0 -10.1875,4.13275 -10.1875,9.21875 0,5.086 4.5785,9.21875 10.1875,9.21875 5.34465,0 9.73414,-3.75573 10.125,-8.53125 52.8486,14.05113 47.97111,61.08204 49.21875,64.34375 0.52689,-6.9571 1.9133,-55.2445 47.90625,-64.5625 0.272,4.86588 4.70581,8.75 10.125,8.75 5.633,0 10.125,-4.11675 10.125,-9.21875 0,-5.086 -4.492,-9.23375 -10.125,-9.21875 -5.24438,0 -9.57372,3.63557 -10.09375,8.28125 C 293.05168,358.38672 283.62028,317.68259 284.03125,301.5 z m -0.4375,46.46875 c 5.898,0 10.656,4.703 10.75,10.5 5.82,0.149 10.5,4.84325 10.5,10.65625 0,5.812 -4.679,10.56225 -10.5,10.65625 -0.125,5.797 -4.883,10.4375 -10.75,10.4375 -5.852,0 -10.60975,-4.6405 -10.71875,-10.4375 -5.82,-0.141 -10.46875,-4.85925 -10.46875,-10.65625 0,-5.797 4.64875,-10.50025 10.46875,-10.65625 0.047,-5.813 4.85175,-10.5 10.71875,-10.5 z m 0.4375,88.625 c -5.641,0 -10.1875,4.133 -10.1875,9.25 0,5.071 4.5465,9.21875 10.1875,9.21875 5.617,0 10.15625,-4.14075 10.15625,-9.21875 0,-5.117 -4.53925,-9.258 -10.15625,-9.25 z"
   transform="translate(-175.626,-214.155)"
   id="path73"
   style="fill:#ffd134;fill-opacity:1;stroke:#010202;stroke-width:3.0480001;stroke-linecap:square;stroke-miterlimit:10" /><path
   d="m 123.077,231.755 c 0.133,0 0.219,0.016 0.352,0.016 3.836,0 6.914,-3.148 6.914,-6.969 0,-3.836 -3.078,-6.961 -6.914,-6.961 h -0.055 -29.93 -0.07 c -3.836,0 -6.914,3.125 -6.914,6.961 0,3.836 3.094,6.969 6.914,6.969 0.133,0 0.234,-0.016 0.344,-0.016 h 29.359 z M 49.264,170.451 c 0,0.109 -0.039,0.219 -0.039,0.328 0,3.859 3.102,6.953 6.969,6.953 3.844,0 6.953,-3.094 6.953,-6.953 0,0 -0.016,0 -0.016,-0.016 h 0.016 v -29.969 l 0,0 c 0,-0.016 0.016,-0.031 0.016,-0.031 0,-3.844 -3.117,-6.969 -6.953,-6.969 -3.875,0 -6.969,3.125 -6.969,6.969 0,0.094 0.031,0.219 0.031,0.328 v 29.359 h -0.008 z m 117.11,-29.453 c 0,-0.125 0.031,-0.211 0.031,-0.289 0,-3.867 -3.141,-6.984 -6.977,-6.984 -3.844,0 -6.953,3.117 -6.953,6.984 h -0.016 v 29.93 h 0.016 v 0.07 c 0,3.836 3.109,6.945 6.953,6.945 3.836,0 6.977,-3.109 6.977,-6.945 0,-0.133 -0.031,-0.211 -0.031,-0.328 V 140.998 z M 124.881,77.232 H 92.084 c -3.594,0 -6.453,2.891 -6.453,6.438 0,3.563 2.828,6.461 6.406,6.477 h 32.813 0.031 c 3.547,0 6.43,-2.898 6.43,-6.477 0,-3.547 -2.867,-6.438 -6.43,-6.438 z M 124.405,56.826 H 91.936 c -3.508,0 -6.367,2.844 -6.367,6.359 0,3.508 2.844,6.328 6.328,6.344 h 32.492 0.016 c 3.508,0 6.383,-2.836 6.383,-6.344 0,-3.516 -2.875,-6.359 -6.383,-6.359 z"
   id="path135"
   style="fill:#ffd134;fill-opacity:1;stroke:#010202;stroke-width:3.24799991;stroke-miterlimit:10" /><path
   d="m -17.81,103.841 -52.441,59.125 c 0,0 -3.637,3.313 -11.559,2.906 -9.582,-0.422 -14.664,-10.813 -18.598,-17.828 -1.496,-0.484 -4.754,-1.172 -4.754,-1.172 l -6.734,5.406 c 0,0 -2.082,1.984 -0.867,4.25 1.195,2.266 14.305,15.469 19.41,15.922 2.352,0.203 0.414,1.891 -0.152,2.125 -5.762,2.063 -15.168,-1.984 -15.168,-1.984 0,0 -0.695,-0.18 -6.258,-0.719 -5.566,-0.5 -4.711,3.516 -4.711,3.516 0,0 2.145,6.563 3.641,8.672 3.406,4.766 25.223,-2.953 25.223,-2.953 0,0 4.57,-0.734 5.824,1.953 -8.59,8.094 -14.414,14.016 -17.109,18.375 -4.609,7.938 -1.891,12.031 -1.02,13.094 1.824,1.609 9.121,1.859 12.625,-2.094 1.992,-2.281 4.219,-11.5 10.09,-20.016 4.406,-6.375 12.063,-12.656 16.688,-13.984 10.063,-2.891 24.742,4.969 24.742,4.969 0,0 7.176,3.031 10.336,-5.719 0.848,-2.375 1.059,-4.344 1.059,-4.344 l -0.977,-2.797 c 0,0 -17.961,-4.609 -25.457,-1.398 -2.945,1.266 -3.273,-1.477 -2.449,-3.094 1.25,-2.477 5.738,-8.742 12.305,-16.398 12.266,-14.305 29.535,-33.359 30.617,-41.141 -4.025,-2.406 -4.306,-4.672 -4.306,-4.672 z"
   id="path147"
   style="fill:#e8423f;fill-opacity:1;stroke:#010202;stroke-width:3.0480001" /><path
   d="m -53.232,-162.26 c -0.32,1.457 -0.059,7.168 2.488,8.535 1.141,0.625 2.156,-0.023 2.91,-1.129 0.75,-1.086 0.594,-2.582 0.594,-2.582 -0.02,-0.031 -1.832,-3.184 0.336,-6.555 2.383,-3.652 8.711,-8.055 25.352,-8.18 16.621,0.133 22.949,4.527 25.32,8.18 2.168,3.371 0.367,6.523 0.352,6.555 0,0 -0.168,1.504 0.59,2.582 0.746,1.105 1.785,1.754 2.922,1.129 2.535,-1.367 2.809,-7.086 2.488,-8.535 -1.512,-6.984 -8.219,-15.352 -31.664,-15.535 -23.473,0.183 -30.176,8.55 -31.688,15.535 z m 7.871,53.695 c -14.496,-7.656 -32.199,-6.617 -32.199,-6.617 0,0 -3.977,1.832 -4.336,5.234 -5.449,-3.066 -4.867,-9.074 -4.867,-9.074 0,0 0.449,-15.352 17.641,-9.629 2.051,0.68 6.938,-0.043 6.641,-1.93 -0.305,-1.832 4.551,-6.496 10.207,-2.488 5.656,4.016 42.938,43.742 48.547,57.234 -28.09,-14.41 -49.563,-16.234 -49.563,-16.234 0,0 -6.559,-0.457 -13.543,-0.266 4.543,-4.367 13.77,-9.52 17.641,-8.254 5.145,1.695 19.406,6.598 19.406,6.598 l -15.575,-14.574 z m -47.265,-14.262 c -1.664,10.422 1.227,11.262 4.785,13.301 3.969,2.258 30.703,0.363 35.938,0.832 5.215,0.48 20.133,14.859 20.133,14.859 0,0 -12.23,-7.313 -19.359,-8.508 -10.336,-1.758 -25.816,-0.133 -36.137,1.188 -10.359,1.309 -12.902,-8.387 -12.902,-8.387 0,0 -1.587,-9.449 7.542,-13.285 z"
   id="path369"
   style="fill:#e8423f;fill-opacity:1;stroke:#010202;stroke-width:3.0480001" /><path
   d="M 27.709,-212.549 V 276.396"
   id="path4707"
   style="fill:none;stroke:#010202;stroke-width:3.0480001" /><path
   d="M 27.502,-212.635 H 229.404 V 84.091 c 0,106.609 -90.328,193.047 -201.773,193.047 -111.41,0 -201.73,-86.438 -201.73,-193.047 V -212.636 H 27.502 z"
   id="path4705"
   style="fill:none;stroke:#010202;stroke-width:3.0480001" /><path
   d="m -90.56,224.466 c -5.059,-4.078 -5.098,-9.313 -5.016,-12.484 0.094,-4.094 -6.984,1.344 -6.41,3.953 0.313,1.477 -1.945,10.969 11.426,8.531 z"
   id="path4703"
   style="fill:#e8423f;fill-opacity:1;stroke:#010202;stroke-width:3.0480001" /><path
   d="m -126.369,193.919 c 0,0 1.117,-11.938 10.496,-13.672 5.641,-1.078 2.047,-5.523 2.047,-5.523 0,0 -8.969,-2.852 -15.063,8.625 -1.952,3.672 2.52,10.57 2.52,10.57 z"
   id="path4701"
   style="fill:#e8423f;fill-opacity:1;stroke:#010202;stroke-width:3.0480001" /><path
   d="m -128.603,154.904 c 0.57,-3.453 4.953,-16 18.25,-8.672 4.926,2.703 3.609,6.477 3.609,6.477 0,0 -2.633,3.359 -5.93,1.063 -8.601,-5.993 -7.855,-7.321 -15.929,1.132 z"
   id="path4699"
   style="fill:#e8423f;fill-opacity:1;stroke:#010202;stroke-width:3.0480001" /><path
   d="m -23.802,192.466 c 4.754,-2 5.719,-9.953 4.563,-11.531 -5.859,-7.867 -13.219,-8.453 -13.219,-8.453 0,0 -3.781,3.219 3.602,8.578 7.374,5.352 5.23,9.844 5.054,11.406 z"
   id="path399"
   style="fill:#e8423f;fill-opacity:1;stroke:#010202;stroke-width:3.0480001" />
<path
   d="m -16.971,-174.20599 c 0,2.31904 -2.08098,4.199 -4.647999,4.199 -2.56702,0 -4.648,-1.87996 -4.648,-4.199 0,-2.31905 2.08098,-4.199 4.648,-4.199 2.567019,0 4.647999,1.87995 4.647999,4.199 z m 5.114,-20.806 c 0,5.11194 -4.477153,9.256 -10,9.256 -5.522848,0 -10,-4.14406 -10,-9.256 0,-5.11195 4.477152,-9.256 10,-9.256 5.522847,0 10,4.14405 10,9.256 z m -5.039,12.60699 c 0,2.32 -2.082,4.215 -4.664,4.215 -2.563,0 -4.633,-1.895 -4.633,-4.215 0,-2.297 2.07,-4.176 4.633,-4.176 2.582,0 4.664,1.879 4.664,4.176 z m -0.075,25.047 c 0,2.30634 -2.08098,4.176 -4.647999,4.176 -2.56702,0 -4.648,-1.86966 -4.648,-4.176 0,-2.30634 2.08098,-4.176 4.648,-4.176 2.567019,0 4.647999,1.86966 4.647999,4.176 z m 0,-8.414 c 0,2.31462 -2.08098,4.191 -4.647999,4.191 -2.56702,0 -4.648,-1.87638 -4.648,-4.191 0,-2.31463 2.08098,-4.191 4.648,-4.191 2.567019,0 4.647999,1.87637 4.647999,4.191 z m 27.321,3.359 c 0,2.32 2.082,4.199 4.664,4.199 2.543,0 4.641,-1.879 4.641,-4.199 0,-2.32 -2.098,-4.191 -4.641,-4.191 -2.582,0 -4.664,1.871 -4.664,4.191 z m -3.199,-7.914 c 0,2.363 2.063,4.266 4.648,4.266 2.559,0 4.641,-1.902 4.641,-4.266 0,-2.352 -2.082,-4.254 -4.641,-4.254 -2.586,0 -4.648,1.903 -4.648,4.254 z m -6.609,-5.918 c 0,2.305 2.09,4.184 4.672,4.184 2.555,0 4.648,-1.879 4.648,-4.184 0,-2.328 -2.094,-4.207 -4.648,-4.207 -2.583,0 -4.672,1.879 -4.672,4.207 z m -8.391,-3.656 c 0,2.313 2.086,4.176 4.664,4.176 2.559,0 4.641,-1.863 4.641,-4.176 0,-2.32 -2.082,-4.199 -4.641,-4.199 -2.578,0 -4.664,1.879 -4.664,4.199 z m 0.2300005,-1.88699 c 0,2.31462 -2.0845622,4.191 -4.6560005,4.191 -2.571437,0 -4.656,-1.87638 -4.656,-4.191 0,-2.31463 2.084563,-4.191 4.656,-4.191 2.5714383,0 4.6560005,1.87637 4.6560005,4.191 z m -45.8159995,19.375 c 0,2.31904 -2.084563,4.199 -4.656001,4.199 -2.571437,0 -4.656,-1.87996 -4.656,-4.199 0,-2.31905 2.084563,-4.199 4.656,-4.199 2.571438,0 4.656001,1.87995 4.656001,4.199 z M -54.865,-174.588 c 2.57,0 4.656,1.91 4.656,4.262 0,2.355 -2.086,4.266 -4.656,4.266 -2.57,0 -4.656,-1.91 -4.656,-4.266 0,-2.352 2.086,-4.262 4.656,-4.262 z m 11.221999,-1.657 c 0,2.31076 -2.08098,4.184 -4.647999,4.184 -2.56702,0 -4.648,-1.87324 -4.648,-4.184 0,-2.31075 2.08098,-4.184 4.648,-4.184 2.567019,0 4.647999,1.87325 4.647999,4.184 z m 8.419,-3.656 c 0,2.30634 -2.084562,4.176 -4.656,4.176 -2.571438,0 -4.656,-1.86966 -4.656,-4.176 0,-2.30634 2.084562,-4.176 4.656,-4.176 2.571438,0 4.656,1.86966 4.656,4.176 z m 9.078001,-1.88699 c 0,2.31462 -2.084562,4.191 -4.656,4.191 -2.571438,0 -4.656,-1.87638 -4.656,-4.191 0,-2.31463 2.084562,-4.191 4.656,-4.191 2.571438,0 4.656,1.87637 4.656,4.191 z m -28.719,7.19999 c 2.57,0 4.656,1.91 4.656,4.262 0,2.355 -2.086,4.266 -4.656,4.266 -2.57,0 -4.656,-1.91 -4.656,-4.266 0,-2.352 2.086,-4.262 4.656,-4.262 z m 60.657,28.589 v -0.016 c 0,0 -54.25,0.016 -54.266,0.016 -1.664,0 -3.023,1.586 -3.023,3.57 0,1.977 1.359,3.574 3.023,3.574 H 5.768 c 1.68,0 3.031,-1.598 3.031,-3.574 0,-1.968 -1.336,-3.542 -3.007,-3.57 z m 2.75,-7.14 v -0.016 l -59.504,0.008 c -1.848,0 -3.336,1.598 -3.336,3.574 0,1.992 1.488,3.582 3.336,3.582 0.051,0 0.098,-0.016 0.16,-0.023 h 59.16 c 0.066,0.008 0.121,0.023 0.168,0.023 1.84,0 3.328,-1.59 3.328,-3.582 -0.016,-1.969 -1.488,-3.551 -3.312,-3.566 z"
   id="path4794"
   style="fill:#e8423f;fill-opacity:1;stroke:#010202;stroke-width:3.0480001" /><path
   d="m 26.936,-98.405 c 0,0 -6.41,-7.199 -7.16,-7.145 4.328,-3.801 7.566,-6 7.16,-8.535 -2.418,2.223 -12.402,-0.375 -13.035,-5.223 2.625,-1.168 1.961,-0.449 7.656,-7.152 -17.437,2.313 -15.574,-13.21 -15.574,-13.21 l -54.434,-0.543 -5.359,10.73 48.801,51.461 c 0,0 7.305,13.434 7.168,17.336 -7.441,-1.656 -10.055,-4.605 -27.25,8.707 -16.766,-6.16 -12.598,-3.113 -41.391,6.047 -9.68,3.078 -18.887,-3.297 -18.887,-3.297 0,0 -9.457,-10.84 5.238,-17.215 0.961,-2.234 -10.641,-17.57 -26.168,-35.762 -20.59,-29.977 -41.094,-68.734 -53.008,-88.91 -18.48,26.824 -4.617,54.719 17.223,79.512 5.641,6.688 18.305,20.398 24.371,25.566 10.352,10.008 12.809,11.855 12.809,14 -2.152,-0.094 -5.609,-1.246 -7.16,-1.297 -3.633,-0.965 -41.563,-20.141 -52.867,-30.934 -9.109,32.617 10.371,39.16 25.16,43.289 11.273,3.125 21.672,5.309 30.305,6.734 -0.238,0.969 -0.039,0.641 -0.246,1.098 -14.059,3.703 -42.168,5.656 -57.746,2.484 -4,34.172 47.961,22.172 60.352,13.672 0.746,-0.016 1.035,0 1.035,0 0,0 -0.418,1.313 -0.785,2.473 -13.297,12.035 -47.449,25.457 -57.402,29.219 19.188,38.766 61.832,-10.816 67.371,-18 0.902,0.031 1.031,0 1.781,0 4.586,5.621 -52.781,79.625 -62.352,91.125 39.754,23.375 66.473,-52.078 81.473,-83.422 1.895,0.375 2.551,0.281 2.551,0.281 0,0 0.168,4.816 -0.504,6.324 0.395,2.801 -33.063,108.41 -47.551,138.941 61.734,0.984 57.785,-97.316 67.695,-143.629 0.328,-1 1.664,-1.141 3.074,-0.813 3.367,4.984 -0.707,86.215 -3.633,110.277 47.113,-13.865 25.297,-104.47 27.184,-114.275 1.863,-4.508 5.023,-3.188 5.023,-3.188 0,0 18.512,54.657 17.945,59.536 -2.168,4.617 -42.953,88.141 -42.953,88.141 l 21.375,-4.422 c 0,0 11.848,37.938 13.801,38.766 C 3.19,105.201 6.526,87.529 8.983,85.013 c 4.816,16.375 19.164,46.422 12.582,83.125 -6.52,36.688 -34.391,61.875 -51.133,60.547 -9.211,-0.203 -9.41,-6.594 -7.816,-8.375 11.422,-12.836 7.207,-26.422 -6.395,-27.406 -5.941,-0.43 -20.512,0.984 -24.375,11.797 -0.992,2.781 1.465,2.828 1.465,2.828 0,0 3.32,-3.031 9.527,-3.836 18.375,-2.367 -12.582,19 -10.582,33.82 0.66,4.836 3.574,8.703 5.527,10.539 5.352,5.031 15.918,4.75 17.848,4.602 2.793,-0.18 32.766,2.805 65.727,-46.852 0.922,-1.406 1.879,0.281 1.602,4.953 -0.578,10.938 -14.555,29.227 -20.848,35.938 -1.832,1.93 -4.328,11.57 2.48,13.961 10.199,3.625 22.094,15.578 22.094,15.578 l 0.25,-374.637 z"
   clip-path="url(#SVGID_8_)"
   id="path169"
   style="fill:#010202" /><path
   d="m -17.154,-126.565 c 0,1.961 -2.543,3.527 -5.695,3.527 -3.137,0 -5.688,-1.566 -5.688,-3.527 0,-1.926 2.551,-3.504 5.688,-3.504 3.152,-0.008 5.695,1.578 5.695,3.504"
   id="path201"
   style="fill:#ffffff" /><path
   d="m -22.322,-127.124 c 0,1.367 -1.281,2.473 -2.848,2.473 -1.586,0 -2.863,-1.105 -2.863,-2.473 0,-1.352 1.277,-2.449 2.863,-2.449 1.567,0 2.848,1.098 2.848,2.449"
   id="path205"
   style="fill:#010202" /><path
   d="m -33.115,-134.436 c 0,0 -4.461,0.766 -4.422,3.984 0.102,5.352 15.496,-3.258 24.766,-1.434 -6.727,-3.113 -21.055,3.051 -22.055,0.633 -0.297,-0.679 1.711,-3.183 1.711,-3.183"
   id="path209"
   style="fill:#ffffff" /></svg>